<svg xmlns="http://www.w3.org/2000/svg" viewBox="0 0 108 108">
  <!-- Background -->
  <rect width="108" height="108" rx="24" fill="#000000" />
  
  <!-- 3-Petal Pinwheel Logo (Scaled 1.9x to fill viewBox) -->
  <g transform="translate(54, 54) scale(1.9) translate(-54, -54)">
    <g fill="#FFFFFF">
      <!-- Petal 1 (0 deg) -->
      <path d="M 54,35.5 A 4.2,10.1 0 1,1 54,55.7 A 4.2,10.1 0 1,1 54,35.5 Z" />
      
      <!-- Petal 2 (120 deg) -->
      <path d="M 54,35.5 A 4.2,10.1 0 1,1 54,55.7 A 4.2,10.1 0 1,1 54,35.5 Z" transform="rotate(120, 54, 54)" />
      
      <!-- Petal 3 (240 deg) -->
      <path d="M 54,35.5 A 4.2,10.1 0 1,1 54,55.7 A 4.2,10.1 0 1,1 54,35.5 Z" transform="rotate(240, 54, 54)" />
    </g>

    <!-- Center Core Cutout -->
    <circle cx="54" cy="54" r="2" fill="#000000" />
  </g>
</svg>
